<svg width="373" height="301" viewBox="0 0 373 301" fill="none" xmlns="http://www.w3.org/2000/svg">
<path d="M15.7501 8.56946C15.6201 7.37946 15.0601 6.44945 14.0801 5.78945C13.1001 5.12945 11.8801 4.79945 10.4001 4.79945C9.34014 4.79945 8.42014 4.96945 7.65014 5.29945C6.88014 5.62945 6.28014 6.08945 5.85014 6.65945C5.42014 7.22945 5.21014 7.88945 5.21014 8.61945C5.21014 9.22945 5.35014 9.75946 5.65014 10.2095C5.94014 10.6595 6.32014 11.0295 6.80014 11.3295C7.28014 11.6295 7.79014 11.8795 8.33014 12.0695C8.87014 12.2595 9.40014 12.4295 9.91014 12.5595L12.4301 13.2195C13.2501 13.4195 14.1001 13.6995 14.9701 14.0395C15.8401 14.3895 16.6401 14.8395 17.3801 15.3995C18.1201 15.9595 18.7201 16.6595 19.1801 17.4895C19.6401 18.3195 19.8701 19.3195 19.8701 20.4795C19.8701 21.9395 19.4901 23.2395 18.7401 24.3795C17.9901 25.5195 16.9001 26.4095 15.4701 27.0695C14.0401 27.7295 12.3201 28.0495 10.3001 28.0495C8.28014 28.0495 6.69014 27.7395 5.28014 27.1295C3.87014 26.5195 2.76014 25.6395 1.96014 24.5095C1.16014 23.3795 0.720137 22.0295 0.640137 20.4795H4.55014C4.63014 21.4095 4.93014 22.1895 5.47014 22.8095C6.00014 23.4295 6.69014 23.8895 7.53014 24.1895C8.37014 24.4895 9.29014 24.6395 10.2901 24.6395C11.3901 24.6395 12.3701 24.4695 13.2401 24.1195C14.1101 23.7695 14.7801 23.2795 15.2801 22.6595C15.7801 22.0295 16.0201 21.2995 16.0201 20.4595C16.0201 19.6895 15.8001 19.0695 15.3701 18.5795C14.9401 18.0895 14.3501 17.6895 13.6201 17.3695C12.8801 17.0495 12.0501 16.7695 11.1301 16.5195L8.08014 15.6895C6.01014 15.1295 4.37014 14.2995 3.16014 13.1995C1.95014 12.1095 1.35014 10.6595 1.35014 8.85945C1.35014 7.36945 1.75013 6.06946 2.56013 4.95946C3.37013 3.84946 4.46013 2.98945 5.84013 2.36945C7.22013 1.74945 8.78014 1.43945 10.5101 1.43945C12.2401 1.43945 13.8001 1.74945 15.1501 2.35945C16.4901 2.96945 17.5501 3.81946 18.3201 4.88946C19.0901 5.95946 19.5001 7.18945 19.5301 8.57945H15.7701L15.7501 8.56946Z" fill="#E36F54"/>
<path d="M33.2401 5.1393V1.7793H53.2401V5.1393H45.1801V27.6293H41.2901V5.1393H33.2401Z" fill="#E36F54"/>
<path d="M84.2601 1.7793H88.1702V18.7793C88.1702 20.5893 87.7501 22.1893 86.9001 23.5793C86.0501 24.9693 84.8602 26.0693 83.3202 26.8593C81.7802 27.6493 79.9802 28.0493 77.9102 28.0493C75.8402 28.0493 74.0501 27.6493 72.5101 26.8593C70.9701 26.0693 69.7801 24.9693 68.9301 23.5793C68.0801 22.1893 67.6602 20.5893 67.6602 18.7793V1.7793H71.5602V18.4593C71.5602 19.6293 71.8201 20.6693 72.3401 21.5793C72.8601 22.4893 73.5901 23.1993 74.5401 23.7193C75.4901 24.2393 76.6202 24.4993 77.9202 24.4993C79.2202 24.4993 80.3702 24.2393 81.3202 23.7193C82.2802 23.1993 83.0102 22.4893 83.5202 21.5793C84.0302 20.6693 84.2802 19.6293 84.2802 18.4593V1.7793H84.2601Z" fill="#E36F54"/>
<path d="M112.22 27.6193H103.85V1.7793H112.48C115.01 1.7793 117.19 2.29929 119 3.32929C120.82 4.35929 122.21 5.83929 123.18 7.75929C124.15 9.67929 124.64 11.9893 124.64 14.6693C124.64 17.3493 124.15 19.6693 123.17 21.6093C122.19 23.5493 120.77 25.0293 118.92 26.0693C117.07 27.1093 114.83 27.6293 112.21 27.6293L112.22 27.6193ZM107.75 24.2193H112C113.97 24.2193 115.6 23.8493 116.91 23.0993C118.21 22.3593 119.19 21.2693 119.84 19.8593C120.49 18.4393 120.81 16.7093 120.81 14.6693C120.81 12.6293 120.49 10.9193 119.84 9.50929C119.2 8.09929 118.24 7.01929 116.97 6.28929C115.7 5.55929 114.12 5.18929 112.24 5.18929H107.75V24.2193Z" fill="#E36F54"/>
<path d="M150.12 2.67953L137.92 28.6095L134.39 26.9495L146.59 1.01953L150.12 2.67953Z" fill="#E36F54"/>
<path d="M183.52 14.6997C183.52 17.4597 183.02 19.8297 182.01 21.8097C181 23.7897 179.62 25.3097 177.86 26.3797C176.11 27.4397 174.11 27.9797 171.89 27.9797C169.67 27.9797 167.66 27.4497 165.9 26.3797C164.15 25.3197 162.77 23.7897 161.76 21.8097C160.75 19.8297 160.25 17.4597 160.25 14.7097C160.25 11.9597 160.75 9.57969 161.76 7.59969C162.77 5.61969 164.15 4.09969 165.9 3.02969C167.65 1.96969 169.65 1.42969 171.89 1.42969C174.13 1.42969 176.11 1.95969 177.86 3.02969C179.61 4.08969 181 5.61969 182.01 7.59969C183.02 9.57969 183.52 11.9497 183.52 14.7097V14.6997ZM179.66 14.6997C179.66 12.5997 179.32 10.8197 178.64 9.37969C177.96 7.93969 177.04 6.83969 175.86 6.09969C174.68 5.35969 173.36 4.97969 171.88 4.97969C170.4 4.97969 169.06 5.34969 167.89 6.09969C166.72 6.83969 165.8 7.93969 165.12 9.37969C164.44 10.8197 164.1 12.5997 164.1 14.6997C164.1 16.7997 164.44 18.5797 165.12 20.0197C165.8 21.4597 166.72 22.5597 167.89 23.2997C169.06 24.0397 170.39 24.4197 171.88 24.4197C173.37 24.4197 174.69 24.0497 175.86 23.2997C177.03 22.5597 177.96 21.4597 178.64 20.0197C179.32 18.5797 179.66 16.7997 179.66 14.6997Z" fill="#E36F54"/>
<path d="M87.8901 161.89H125.4V185.15C131.52 170.54 141.39 161.07 159.16 161.86V201.34H156C136.46 201.34 125.4 212.59 125.4 237.07V270.43H87.8901V161.89Z" fill="#E36F54"/>
<path d="M245.22 161.89H283.71L244.63 266.12C235.35 291.19 225.28 300.86 203.97 300.86C190.74 300.86 179.69 297.31 169.82 291.58L181.27 265.33C187.39 268.88 193.51 271.05 197.65 271.05C201.4 271.05 203.97 270.06 206.53 266.71L164.68 161.89H203.77L225.09 226.24L245.22 161.89Z" fill="#E36F54"/>
<path d="M278.68 254.83L292.7 232.33C304.94 240.42 318.16 244.57 329.22 244.57C335.73 244.57 338.89 242.6 338.89 238.85V238.45C338.89 234.11 332.77 232.33 321.52 229.17C300.4 223.64 283.62 216.54 283.62 195.22V194.83C283.62 172.13 301.78 159.5 326.46 159.5C342.05 159.5 358.24 164.04 370.48 171.94L357.65 195.63C346.6 189.31 334.55 185.56 326.07 185.56C320.35 185.56 317.38 187.73 317.38 190.89V191.29C317.38 195.44 323.7 197.41 334.75 200.76C355.87 206.68 372.65 213.99 372.65 234.71V235.1C372.65 258.59 355.08 270.83 329.02 270.83C311.06 270.83 293.29 265.5 278.68 254.84V254.83Z" fill="#E36F54"/>
<path d="M3.01013 44.1796H40.5201V58.3896C47.8201 49.5096 56.9001 41.8096 72.8901 41.8096C98.3501 41.8096 120.27 62.9296 120.27 97.0796V97.4696C120.27 132.21 98.3601 153.33 73.0901 153.33C56.9001 153.33 47.4301 146.03 40.5201 137.93V182.54H3.01013V44.1596V44.1796ZM83.5501 97.6796V97.2896C83.5501 83.0796 73.6801 73.0096 61.6401 73.0096C49.6001 73.0096 39.7301 83.0796 39.7301 97.2896V97.6796C39.7301 111.89 49.4001 121.96 61.6401 121.96C73.8801 121.96 83.5501 112.09 83.5501 97.6796Z" fill="#E36F54"/>
<path d="M126.88 98.0696V97.6696C126.88 67.2696 151.75 41.8096 185.9 41.8096C220.05 41.8096 244.73 66.8796 244.73 97.2796V97.6696C244.73 128.07 219.86 153.53 185.51 153.53C151.16 153.53 126.88 128.46 126.88 98.0596V98.0696ZM208.41 98.0696V97.6696C208.41 84.4396 198.74 73.3896 185.51 73.3896C172.28 73.3896 163.2 84.2496 163.2 97.2796V97.6696C163.2 110.7 172.68 121.75 185.9 121.75C199.12 121.75 208.4 110.89 208.4 98.0596L208.41 98.0696Z" fill="#E36F54"/>
<path d="M251.14 98.07V97.67C251.14 62.93 273.05 41.81 298.32 41.81C314.51 41.81 323.98 49.11 330.89 57.21V0H368.4V150.98H330.89V136.77C323.59 145.65 314.51 153.35 298.52 153.35C273.06 153.35 251.14 132.23 251.14 98.08V98.07ZM331.68 97.68V97.29C331.68 83.27 322.01 73.01 309.77 73.01C297.53 73.01 287.86 83.08 287.86 97.29V97.68C287.86 111.89 297.73 121.96 309.77 121.96C321.81 121.96 331.68 111.89 331.68 97.68Z" fill="#E36F54"/>
</svg>
