<svg width="546" height="116" viewBox="0 0 546 116" fill="none" xmlns="http://www.w3.org/2000/svg">
<path d="M0.837891 -91.0258H56.833V-69.8073C67.7338 -83.0671 81.2919 -94.5645 105.168 -94.5645C143.185 -94.5645 175.901 -63.0282 175.901 -12.0496V-11.4666C175.901 40.4069 143.185 71.9296 105.466 71.9296C81.3055 71.9296 67.1508 61.0289 56.833 48.9486V115.546H0.837891V-91.0393V-91.0258ZM121.072 -11.1683V-11.7513C121.072 -32.9698 106.334 -48.0058 88.3558 -48.0058C70.3776 -48.0058 55.6399 -32.9698 55.6399 -11.7513V-11.1683C55.6399 10.0502 70.0794 25.0862 88.3558 25.0862C106.632 25.0862 121.072 10.3485 121.072 -11.1683Z" fill="#EDE9E0"/>
<path d="M185.771 -10.5717V-11.1683C185.771 -56.5474 222.907 -94.5645 273.886 -94.5645C324.864 -94.5645 361.702 -57.1304 361.702 -11.7513V-11.1683C361.702 34.2108 324.566 72.2279 273.289 72.2279C222.012 72.2279 185.758 34.7939 185.758 -10.5853L185.771 -10.5717ZM307.483 -10.5717V-11.1683C307.483 -30.909 293.043 -47.4228 273.303 -47.4228C253.562 -47.4228 240.004 -31.2072 240.004 -11.7648V-11.1818C240.004 8.27411 254.145 24.7744 273.899 24.7744C293.653 24.7744 307.496 8.55883 307.496 -10.5853L307.483 -10.5717Z" fill="#EDE9E0"/>
<path d="M371.287 -10.572V-11.1685C371.287 -63.042 404.003 -94.5647 441.722 -94.5647C465.882 -94.5647 480.037 -83.664 490.355 -71.5837V-157H546.35V68.4043H490.355V47.1857C479.454 60.4456 465.896 71.9429 442.02 71.9429C404.003 71.9429 371.287 40.4066 371.287 -10.572ZM491.521 -11.1685V-11.7515C491.521 -32.6718 477.081 -48.006 458.805 -48.006C440.529 -48.006 426.089 -32.97 426.089 -11.7515V-11.1685C426.089 10.05 440.827 25.086 458.805 25.086C476.783 25.086 491.521 10.05 491.521 -11.1685Z" fill="#EDE9E0"/>
</svg>
