<svg width="426" height="96" viewBox="0 0 426 96" fill="none" xmlns="http://www.w3.org/2000/svg">
<path d="M0 3.59346H55.9952V38.3159C65.1334 16.5008 79.871 2.3597 106.391 3.53926V62.4765H101.673C72.4954 62.4765 55.9952 79.2751 55.9952 115.814V165.627H0V3.59346Z" fill="#F1EAE1"/>
<path d="M234.882 3.59277H292.355L234 159.2C220.144 196.634 205.121 211.073 173.287 211.073C153.546 211.073 137.032 205.772 122.308 197.217L139.405 158.02C148.543 163.321 157.681 166.562 163.864 166.562C169.463 166.562 173.3 165.084 177.124 160.081L114.648 3.59277H173.002L204.837 99.6658L234.895 3.59277H234.882Z" fill="#F1EAE1"/>
<path d="M284.829 142.347L305.75 108.75C324.026 120.83 343.767 127.026 360.267 127.026C369.988 127.026 374.706 124.084 374.706 118.485V117.888C374.706 111.407 365.568 108.75 348.77 104.032C317.233 95.7748 292.191 85.1723 292.191 53.3378V52.7548C292.191 18.8594 319.308 0 356.145 0C379.425 0 403.599 6.77908 421.862 18.5611L402.704 53.9208C386.204 44.4843 368.226 38.8848 355.549 38.8848C347.007 38.8848 342.587 42.1252 342.587 46.8434V47.44C342.587 53.6225 352.024 56.5782 368.524 61.5811C400.06 70.421 425.102 81.3218 425.102 112.275V112.858C425.102 147.933 398.867 166.196 359.969 166.196C333.151 166.196 306.631 158.237 284.816 142.32L284.829 142.347Z" fill="#F1EAE1"/>
</svg>
